#!OML:ASF X:\für Bonn\!DataBase\2005_08_10_Bjorn_Final\c3d\bjorn.ASF
:FULLY-SPECIFIED
:DEGREES
451
root 0.299705 2.25831 18.6712 -250.731 -12.1133 -535.798
lowerback 55.9266 4.57628 13.9816
upperback 27.6228 -4.29891 4.66981
thorax 11.3733 -8.55739 -1.28016
lowerneck 12.6208 15.5192 4.56015
upperneck 7.55417 20.7134 -7.1268
head 1.7232 10.302 -3.34592
rclavicle 2.31584e-014 5.1684e-015
rhumerus -59.6782 4.37204 -82.8424
rradius 34.9837
rwrist -3.89744
rhand 13.4211 -5.05331
rfingers 7.12502
rthumb 38.3634 -30.7527
lclavicle 2.31584e-014 5.1684e-015
lhumerus -54.6542 -31.1708 85.2595
lradius 80.7811
lwrist 10.4424
lhand -33.8794 -355.656
lfingers 7.12502
lthumb -7.06318 34.2057
rfemur -77.0125 -33.7483 -1.92824
rtibia 124.171
rfoot 34.2111 21.3479
rtoes -0.0814869
lfemur -81.6928 20.5187 -14.8466
ltibia 128.649
lfoot 24.5951 -7.99921
ltoes 12.242
452
root 0.297241 2.26007 18.6694 -250.808 -12.1348 -535.702
lowerback 56.2852 4.58679 13.9545
upperback 27.5278 -4.26912 4.6208
thorax 11.2263 -8.56245 -1.29211
lowerneck 12.6318 15.5055 4.55031
upperneck 7.55191 20.6888 -7.12208
head 1.71711 10.2878 -3.34465
rclavicle -2.88238e-015 7.03698e-014
rhumerus -58.8619 5.92891 -82.7267
rradius 35.8974
rwrist -0.973007
rhand 14.3719 -5.01963
rfingers 7.12502
rthumb 39.2601 -30.4646
lclavicle -2.88238e-015 7.03698e-014
lhumerus -52.613 -31.3477 83.8665
lradius 80.9079
lwrist 9.32168
lhand -34.1384 -356.297
lfingers 7.12502
lthumb -7.31317 33.5562
rfemur -76.8565 -33.7602 -2.02247
rtibia 124.183
rfoot 34.1324 21.4355
rtoes -0.226387
lfemur -81.585 20.4715 -14.8427
ltibia 128.585
lfoot 24.9868 -7.90268
ltoes 13.1625
453
root 0.294272 2.26213 18.6689 -250.881 -12.1504 -535.613
lowerback 56.5739 4.61225 13.9237
upperback 27.4684 -4.2394 4.56151
thorax 11.128 -8.56399 -1.32511
lowerneck 12.7067 15.4858 4.59109
upperneck 7.46631 20.664 -7.14703
head 1.68166 10.2785 -3.36995
rclavicle -1.41137e-014 2.38542e-014
rhumerus -57.9435 7.4205 -82.474
rradius 36.8411
rwrist 1.75986
rhand 15.2694 -4.96991
rfingers 7.12502
rthumb 40.1052 -30.1641
lclavicle -1.41137e-014 2.38542e-014
lhumerus -50.4165 -31.5238 82.3603
lradius 80.9346
lwrist 8.16203
lhand -34.3398 -356.795
lfingers 7.12502
lthumb -7.50754 33.0522
rfemur -76.7093 -33.747 -2.1068
rtibia 124.187
rfoot 34.0384 21.5248
rtoes -0.465579
lfemur -81.4724 20.4258 -14.8341
ltibia 128.523
lfoot 25.2458 -7.8453
ltoes 13.5229
454
root 0.291329 2.2624 18.6679 -250.954 -12.1748 -535.533
lowerback 56.828 4.6449 13.8794
upperback 27.4207 -4.2077 4.48521
thorax 11.0439 -8.55973 -1.37535
lowerneck 12.7593 15.4549 4.70139
upperneck 7.43174 20.633 -7.17683
head 1.67504 10.2662 -3.40219
rclavicle 1.07344e-014 2.62396e-014
rhumerus -56.9426 8.85108 -82.1061
rradius 37.8776
rwrist 3.97794
rhand 16.1922 -5.2651
rfingers 7.12502
rthumb 40.9726 -30.1902
lclavicle 1.07344e-014 2.62396e-014
lhumerus -48.1381 -31.7127 80.785
lradius 80.8587
lwrist 7.00488
lhand -34.6806 -357.453
lfingers 7.12502
lthumb -7.83652 32.3819
rfemur -76.5725 -33.728 -2.20173
rtibia 124.195
rfoot 33.9859 21.5938
rtoes -0.549341
lfemur -81.4009 20.398 -14.8489
ltibia 128.486
lfoot 25.443 -7.83584
ltoes 13.6448
455
root 0.289062 2.26289 18.6686 -251.029 -12.1927 -535.464
lowerback 57.0359 4.6956 13.8149
upperback 27.3954 -4.17618 4.40372
thorax 10.9885 -8.55691 -1.42983
lowerneck 12.8876 15.4227 4.88896
upperneck 7.34881 20.6118 -7.29118
head 1.65966 10.2636 -3.48169
rclavicle -3.97569e-015 2.42517e-014
rhumerus -55.8127 10.2067 -81.5704
rradius 38.881
rwrist 5.94206
rhand 17.267 -5.62199
rfingers 7.12502
rthumb 41.9811 -30.2184
lclavicle -3.97569e-015 2.42517e-014
lhumerus -45.7984 -31.8921 79.192
lradius 80.6623
lwrist 5.96132
lhand -35.1407 -358.338
lfingers 7.12502
lthumb -8.28051 31.4799
rfemur -76.4463 -33.6819 -2.28678
rtibia 124.2
rfoot 33.9176 21.6689
rtoes -0.738197
lfemur -81.2997 20.394 -14.8454
ltibia 128.441
lfoot 25.5562 -7.78357
ltoes 13.6835
456
root 0.286651 2.2629 18.669 -251.103 -12.193 -535.39
lowerback 57.1893 4.76012 13.7345
upperback 27.3845 -4.14102 4.32465
thorax 10.9525 -8.55177 -1.48161
lowerneck 13.0711 15.3769 5.14058
upperneck 7.24764 20.5815 -7.45446
head 1.6416 10.2593 -3.59262
rclavicle 1.43125e-014 -8.34896e-015
rhumerus -54.5755 11.4567 -80.8575
rradius 39.8195
rwrist 7.62867
rhand 18.3536 -6.00821
rfingers 7.12502
rthumb 42.9983 -30.2547
lclavicle 1.43125e-014 -8.34896e-015
lhumerus -43.4144 -32.1507 77.5899
lradius 80.4043
lwrist 5.02007
lhand -35.687 -359.183
lfingers 7.12502
lthumb -8.80777 30.6133
rfemur -76.3027 -33.6082 -2.36056
rtibia 124.198
rfoot 33.8771 21.6657
rtoes -0.827803
lfemur -81.2348 20.4095 -14.8255
ltibia 128.423
lfoot 25.636 -7.76901
ltoes 13.4586
457
root 0.28457 2.26213 18.6707 -251.158 -12.224 -535.337
lowerback 57.3001 4.82802 13.6209
upperback 27.3742 -4.10414 4.21421
thorax 10.9129 -8.5357 -1.55461
lowerneck 13.33 15.3232 5.43641
upperneck 7.1039 20.5462 -7.63418
head 1.60324 10.2556 -3.72524
rclavicle 6.7388e-014 -4.77083e-015
rhumerus -53.2271 12.5358 -80.0012
rradius 40.6338
rwrist 9.09888
rhand 19.3423 -6.3035
rfingers 7.12502
rthumb 43.9219 -30.2154
lclavicle 6.7388e-014 -4.77083e-015
lhumerus -41.0076 -32.5507 75.9703
lradius 80.1193
lwrist 4.38964
lhand -36.2941 -359.874
lfingers 7.12502
lthumb -9.39359 29.8963
rfemur -76.2105 -33.5302 -2.4473
rtibia 124.2
rfoot 33.8063 21.7104
rtoes -1.05913
lfemur -81.1616 20.4078 -14.8419
ltibia 128.389
lfoot 25.6554 -7.69238
ltoes 13.2984
458
root 0.282082 2.26124 18.6725 -251.211 -12.223 -535.276
lowerback 57.3648 4.89192 13.5451
upperback 27.3749 -4.05093 4.09457
thorax 10.8916 -8.49906 -1.66306
lowerneck 13.5815 15.233 5.8706
upperneck 6.99674 20.4846 -7.87145
head 1.59871 10.2417 -3.89557
rclavicle 5.96354e-015 -5.56597e-015
rhumerus -51.8464 13.5418 -79.1085
rradius 41.4287
rwrist 10.2274
rhand 20.0815 -6.73578
rfingers 7.12502
rthumb 44.611 -30.3869
lclavicle 5.96354e-015 -5.56597e-015
lhumerus -38.5453 -33.1282 74.2892
lradius 79.8162
lwrist 3.96639
lhand -37.0016 -360.287
lfingers 7.12502
lthumb -10.0762 29.4516
rfemur -76.1136 -33.4368 -2.49594
rtibia 124.2
rfoot 33.7446 21.7324
rtoes -1.17756
lfemur -81.1104 20.44 -14.8315
ltibia 128.372
lfoot 25.6271 -7.6607
ltoes 12.9866
459
root 0.279878 2.26016 18.6747 -251.255 -12.2522 -535.229
lowerback 57.3801 4.97677 13.3912
upperback 27.3765 -4.00577 3.97495
thorax 10.866 -8.47203 -1.73696
lowerneck 14.0253 15.1709 6.17869
upperneck 6.76113 20.4648 -8.43341
head 1.3844 10.2428 -3.78491
rclavicle -1.37161e-014 3.85642e-014
rhumerus -50.3708 14.5719 -78.1529
rradius 42.1002
rwrist 11.0029
rhand 20.3813 -7.28782
rfingers 7.12502
rthumb 44.8901 -30.8305
lclavicle -1.37161e-014 3.85642e-014
lhumerus -36.0502 -33.6405 72.5752
lradius 79.44
lwrist 3.57472
lhand -37.5569 -360.494
lfingers 7.12502
lthumb -10.6118 29.2181
rfemur -76.0254 -33.3665 -2.58375
rtibia 124.195
rfoot 33.7404 21.6817
rtoes -1.09302
lfemur -81.0814 20.4366 -14.8541
ltibia 128.365
lfoot 25.5641 -7.64501
ltoes 12.517
460
root 0.277967 2.25814 18.6782 -251.281 -12.2679 -535.176
lowerback 57.3295 5.06604 13.2468
upperback 27.3952 -3.95036 3.85072
thorax 10.8651 -8.43123 -1.82903
lowerneck 14.2289 15.1283 6.54048
upperneck 6.72435 20.4579 -8.62751
head 1.39728 10.2507 -3.90024
rclavicle -1.19271e-014 -1.03368e-014
rhumerus -48.8375 15.4914 -77.1491
rradius 42.7041
rwrist 11.4917
rhand 20.255 -7.79959
rfingers 7.12502
rthumb 44.7726 -31.3882
lclavicle -1.19271e-014 -1.03368e-014
lhumerus -33.4676 -34.1263 70.7803
lradius 79.0145
lwrist 3.21686
lhand -38.0374 -360.733
lfingers 7.12502
lthumb -11.0754 28.9545
rfemur -75.9823 -33.2663 -2.62378
rtibia 124.189
rfoot 33.6937 21.6954
rtoes -1.25264
lfemur -81.0723 20.4158 -14.8696
ltibia 128.348
lfoot 25.4762 -7.59023
ltoes 12.0831
